<svg xmlns="http://www.w3.org/2000/svg" xmlns:xlink="http://www.w3.org/1999/xlink" width="2000" height="2008.3"><defs><linearGradient id="a"><stop offset="0" stop-color="rgba(255, 255, 255, 0.5)"/><stop offset="1" stop-color="rgba(255, 255, 255, 0.5)"/></linearGradient><linearGradient x1="314.6" y1="547.2" x2="427.4" y2="432.5" id="b" xlink:href="#a" gradientUnits="userSpaceOnUse" gradientTransform="translate(-52)"/></defs><g transform="translate(-3987.6 -6644.9) scale(15.62304)"><rect width="128" height="128.5" ry="20.7" x="255.2" y="425.3" fill="url(#b)"/><g style="text-align:center;line-height:100%;-inkscape-font-specification:Sans"><path d="M320.2 480.7c3.3 0 5.8-.7 7.5-2.2 1.6-1.4 2.5-3.5 2.5-6.3 0-2.7-.9-4.8-2.5-6.2-1.7-1.5-4.2-2.2-7.5-2.2h-11.5v16.9h11.5m.7 34.8c4.2 0 7.3-.9 9.4-2.6 2.1-1.8 3.2-4.4 3.2-8 0-3.4-1-6-3.2-7.6-2-1.8-5.2-2.7-9.4-2.7h-12.2v20.9H321m19.3-28.6c4.5 1.2 8 3.6 10.4 7 2.4 3.5 3.6 7.7 3.6 12.7 0 7.7-2.6 13.4-7.8 17.2a41.1 41.1 0 0 1-24 5.7H288v-79.7H319c11.2 0 19.3 1.7 24.3 5 5 3.4 7.5 8.7 7.5 16.1 0 3.9-.9 7.2-2.7 10a16.2 16.2 0 0 1-8 6" style="line-height:100%;-inkscape-font-specification:Sans Bold" font-weight="700" font-size="109.8" letter-spacing="0" word-spacing="0" text-anchor="middle" fill="rgb(37, 38, 39)" font-family="Sans"/></g></g></svg>