<?xml version="1.0" standalone="no"?>
<!DOCTYPE svg PUBLIC "-//W3C//DTD SVG 20010904//EN"
 "http://www.w3.org/TR/2001/REC-SVG-20010904/DTD/svg10.dtd">
<svg version="1.0" xmlns="http://www.w3.org/2000/svg"
 width="260.000000pt" height="260.000000pt" viewBox="0 0 260.000000 260.000000"
 preserveAspectRatio="xMidYMid meet">
<metadata>
Created by potrace 1.11, written by Peter Selinger 2001-2013
</metadata>
<g transform="translate(0.000000,260.000000) scale(0.100000,-0.100000)"
fill="#000000" stroke="none">
<path d="M310 2560 l0 -40 995 0 995 0 0 40 0 40 -995 0 -995 0 0 -40z"/>
<path d="M1277 2288 c-79 -187 -739 -1653 -773 -1716 -73 -140 -132 -196 -229
-223 -28 -8 -35 -15 -35 -34 l0 -25 330 0 330 0 0 23 c0 22 -6 25 -80 35 -44
6 -94 19 -110 27 -45 23 -70 70 -70 131 0 59 12 96 77 246 l47 108 347 0 347
0 70 -162 c39 -90 76 -183 83 -208 25 -95 -19 -138 -151 -147 -76 -6 -80 -7
-80 -29 l0 -24 480 0 480 0 0 24 c0 21 -7 26 -52 36 -68 17 -120 69 -178 180
-24 47 -211 468 -416 935 -236 538 -378 851 -388 853 -9 2 -21 -9 -29 -30z
m-3 -1008 l133 -305 -290 -3 c-159 -1 -292 0 -294 2 -3 3 62 154 143 337 145
324 148 331 161 303 8 -16 74 -166 147 -334z"/>
<path d="M0 1305 l0 -995 40 0 40 0 0 995 0 995 -40 0 -40 0 0 -995z"/>
<path d="M2520 1300 l0 -1000 40 0 40 0 0 1000 0 1000 -40 0 -40 0 0 -1000z"/>
<path d="M300 40 l0 -40 1000 0 1000 0 0 40 0 40 -1000 0 -1000 0 0 -40z"/>
</g>
</svg>
